M48
;GenerationSoftware,Autodesk,EAGLE,9.1.3*%
;CreationDate,2019-10-04T04:58:17Z*%
FMAT,2
ICI,OFF
METRIC,TZ,000.000
T9C0.350
T8C0.700
T7C0.762
T6C0.800
T5C0.900
T4C1.000
T3C1.016
T2C1.829
T1C3.400
%
G90
M71
T1
X142270Y2000
X142270Y21000
T2
X29460Y8950
X22712Y11490
X29460Y14030
X77220Y14050
X83968Y11510
X77220Y8970
T3
X88900Y3810
X91440Y3810
X93980Y3810
X96520Y3810
X99060Y3810
X101600Y3810
T4
X2000Y21000
X2000Y2000
T5
X1905Y7620
X1905Y15875
X1905Y18415
X1905Y5080
X-20320Y5080
X-20320Y18415
T6
X10819Y2540
X13819Y2540
X107720Y2540
X110720Y2540
T7
X11430Y13970
X11430Y8890
X11430Y11430
T8
X131150Y4600
X129150Y4600
X127150Y4600
X125150Y4600
X135150Y4600
X137150Y4600
X139150Y4600
X133150Y4600
X127150Y18600
X129150Y18600
X131150Y18600
X133150Y18600
X135150Y18600
X137150Y18600
X139150Y18600
X125150Y18600
T9
X38100Y20320
X41910Y20320
X46990Y20320
X53340Y20320
X62230Y20320
X68580Y20320
X78740Y20320
X84836Y17526
X80010Y15240
X85090Y15240
X73660Y15240
X73279Y17526
X89154Y17399
X88900Y15240
X95504Y21209
X101219Y17907
X99949Y20447
X104775Y14605
X100965Y9525
X104775Y10795
X108585Y6985
X103505Y5715
X111125Y9525
X126365Y8255
X125095Y10795
X127635Y10795
X133350Y6350
X106680Y19050
X126873Y6350
X134620Y11430
X138430Y7620
X138430Y15240
X132969Y16002
X139700Y16510
X138430Y10160
X116840Y2540
X72390Y3810
X71120Y8890
X82296Y6731
X80010Y11430
X135890Y21590
X121920Y21336
X118110Y20320
X110490Y21590
X104140Y21590
X121793Y17272
X128143Y17399
X124079Y5969
X13589Y14478
X118872Y7874
X122428Y3429
X120015Y2921
X101473Y12192
X101473Y13462
X34290Y20320
X24130Y20320
X19050Y20320
X10160Y20320
X6350Y2540
X2540Y11430
X24130Y13970
X17780Y11430
X25400Y7620
X24130Y3810
X29210Y3810
X34290Y3810
X41910Y13970
X41910Y3810
X46990Y3810
X53340Y3810
X62230Y3810
X62230Y8890
X62230Y13970
X53340Y13970
X46990Y8890
X46990Y13970
X41910Y8890
X34290Y8890
X34290Y12700
X4318Y17145
X16510Y5080
X138430Y12700
X129540Y8890
X130683Y1651
X123190Y2286
X118872Y1905
X68580Y15240
X53340Y8890
X38100Y15240
X19431Y17145
X16510Y7620
X3810Y13970
X113665Y17145
X118999Y11938
X114554Y11938
X100330Y13970
X91440Y7620
X109220Y19050
X129540Y6350
M30