G04 EAGLE Gerber X2 export*
%TF.Part,Single*%
%TF.FileFunction,Soldermask,Bot,1*%
%TF.FilePolarity,Negative*%
%TF.GenerationSoftware,Autodesk,EAGLE,9.1.3*%
%TF.CreationDate,2019-10-04T04:58:18Z*%
G75*
%MOMM*%
%FSLAX34Y34*%
%LPD*%
%AMOC8*
5,1,8,0,0,1.08239X$1,22.5*%
G01*
%ADD10C,1.203200*%
%ADD11C,3.603200*%
%ADD12C,2.946400*%
%ADD13C,1.411200*%
%ADD14C,1.727200*%
%ADD15C,1.003200*%
%ADD16R,1.611200X1.611200*%
%ADD17R,1.473200X1.473200*%


D10*
X20000Y210000D03*
X20000Y20000D03*
D11*
X1422700Y20000D03*
X1422700Y210000D03*
D12*
X294600Y89500D03*
X227120Y114900D03*
X294600Y140300D03*
X772200Y140500D03*
X839680Y115100D03*
X772200Y89700D03*
D13*
X1251500Y46000D02*
X1251500Y33920D01*
X1271500Y33920D02*
X1271500Y46000D01*
X1291500Y46000D02*
X1291500Y33920D01*
X1311500Y33920D02*
X1311500Y46000D01*
X1331500Y46000D02*
X1331500Y33920D01*
X1351500Y33920D02*
X1351500Y46000D01*
X1371500Y46000D02*
X1371500Y33920D01*
X1391500Y33920D02*
X1391500Y46000D01*
X1251500Y186000D02*
X1251500Y198080D01*
X1271500Y198080D02*
X1271500Y186000D01*
X1291500Y186000D02*
X1291500Y198080D01*
X1311500Y198080D02*
X1311500Y186000D01*
X1331500Y186000D02*
X1331500Y198080D01*
X1351500Y198080D02*
X1351500Y186000D01*
X1371500Y186000D02*
X1371500Y198080D01*
X1391500Y198080D02*
X1391500Y186000D01*
D14*
X1016000Y45720D02*
X1016000Y30480D01*
X990600Y30480D02*
X990600Y45720D01*
X965200Y45720D02*
X965200Y30480D01*
X939800Y30480D02*
X939800Y45720D01*
X914400Y45720D02*
X914400Y30480D01*
X889000Y30480D02*
X889000Y45720D01*
D15*
X108190Y25400D03*
X138190Y25400D03*
D16*
X-203200Y184150D03*
X-203200Y50800D03*
X19050Y50800D03*
X19050Y184150D03*
X19050Y158750D03*
X19050Y76200D03*
D15*
X1077200Y25400D03*
X1107200Y25400D03*
D17*
X114300Y88900D03*
X114300Y114300D03*
X114300Y139700D03*
M02*
