G04 EAGLE Gerber X2 export*
%TF.Part,Single*%
%TF.FileFunction,Legend,Bot,1*%
%TF.FilePolarity,Positive*%
%TF.GenerationSoftware,Autodesk,EAGLE,9.1.3*%
%TF.CreationDate,2019-10-04T04:58:18Z*%
G75*
%MOMM*%
%FSLAX34Y34*%
%LPD*%
%AMOC8*
5,1,8,0,0,1.08239X$1,22.5*%
G01*
%ADD10C,0.152400*%


D10*
X742188Y69342D02*
X742188Y85598D01*
X737672Y85598D01*
X737541Y85596D01*
X737409Y85590D01*
X737278Y85581D01*
X737148Y85567D01*
X737017Y85550D01*
X736888Y85529D01*
X736759Y85505D01*
X736631Y85476D01*
X736503Y85444D01*
X736377Y85408D01*
X736252Y85369D01*
X736127Y85326D01*
X736005Y85279D01*
X735883Y85229D01*
X735763Y85175D01*
X735645Y85118D01*
X735529Y85057D01*
X735414Y84993D01*
X735301Y84926D01*
X735190Y84855D01*
X735082Y84781D01*
X734975Y84704D01*
X734871Y84624D01*
X734769Y84541D01*
X734670Y84456D01*
X734573Y84367D01*
X734479Y84275D01*
X734387Y84181D01*
X734298Y84084D01*
X734213Y83985D01*
X734130Y83883D01*
X734050Y83779D01*
X733973Y83672D01*
X733899Y83564D01*
X733828Y83453D01*
X733761Y83340D01*
X733697Y83225D01*
X733636Y83109D01*
X733579Y82991D01*
X733525Y82871D01*
X733475Y82749D01*
X733428Y82627D01*
X733385Y82502D01*
X733346Y82377D01*
X733310Y82251D01*
X733278Y82123D01*
X733249Y81995D01*
X733225Y81866D01*
X733204Y81737D01*
X733187Y81606D01*
X733173Y81476D01*
X733164Y81345D01*
X733158Y81213D01*
X733156Y81082D01*
X733157Y81082D02*
X733157Y73858D01*
X733156Y73858D02*
X733158Y73727D01*
X733164Y73595D01*
X733173Y73464D01*
X733187Y73334D01*
X733204Y73203D01*
X733225Y73074D01*
X733249Y72945D01*
X733278Y72817D01*
X733310Y72689D01*
X733346Y72563D01*
X733385Y72438D01*
X733428Y72313D01*
X733475Y72191D01*
X733525Y72069D01*
X733579Y71949D01*
X733636Y71831D01*
X733697Y71715D01*
X733761Y71600D01*
X733828Y71487D01*
X733899Y71376D01*
X733973Y71268D01*
X734050Y71161D01*
X734130Y71057D01*
X734213Y70955D01*
X734298Y70856D01*
X734387Y70759D01*
X734479Y70665D01*
X734573Y70573D01*
X734670Y70484D01*
X734769Y70399D01*
X734871Y70316D01*
X734975Y70236D01*
X735082Y70159D01*
X735190Y70085D01*
X735301Y70014D01*
X735414Y69947D01*
X735529Y69883D01*
X735645Y69822D01*
X735763Y69765D01*
X735883Y69711D01*
X736005Y69661D01*
X736127Y69614D01*
X736252Y69571D01*
X736377Y69532D01*
X736503Y69496D01*
X736631Y69464D01*
X736759Y69435D01*
X736888Y69411D01*
X737017Y69390D01*
X737148Y69373D01*
X737278Y69359D01*
X737409Y69350D01*
X737541Y69344D01*
X737672Y69342D01*
X742188Y69342D01*
X723465Y69342D02*
X718950Y69342D01*
X723465Y69342D02*
X723566Y69344D01*
X723667Y69350D01*
X723768Y69359D01*
X723869Y69372D01*
X723969Y69389D01*
X724068Y69410D01*
X724166Y69434D01*
X724263Y69462D01*
X724360Y69494D01*
X724455Y69529D01*
X724548Y69568D01*
X724640Y69610D01*
X724731Y69656D01*
X724820Y69705D01*
X724906Y69757D01*
X724991Y69813D01*
X725074Y69871D01*
X725154Y69933D01*
X725232Y69998D01*
X725308Y70065D01*
X725381Y70135D01*
X725451Y70208D01*
X725518Y70284D01*
X725583Y70362D01*
X725645Y70442D01*
X725703Y70525D01*
X725759Y70610D01*
X725811Y70696D01*
X725860Y70785D01*
X725906Y70876D01*
X725948Y70968D01*
X725987Y71061D01*
X726022Y71156D01*
X726054Y71253D01*
X726082Y71350D01*
X726106Y71448D01*
X726127Y71547D01*
X726144Y71647D01*
X726157Y71748D01*
X726166Y71849D01*
X726172Y71950D01*
X726174Y72051D01*
X726175Y72051D02*
X726175Y76567D01*
X726174Y76567D02*
X726172Y76686D01*
X726166Y76806D01*
X726156Y76925D01*
X726142Y77043D01*
X726125Y77162D01*
X726103Y77279D01*
X726078Y77396D01*
X726048Y77511D01*
X726015Y77626D01*
X725978Y77740D01*
X725938Y77852D01*
X725893Y77963D01*
X725845Y78072D01*
X725794Y78180D01*
X725739Y78286D01*
X725680Y78390D01*
X725618Y78492D01*
X725553Y78592D01*
X725484Y78690D01*
X725412Y78786D01*
X725337Y78879D01*
X725260Y78969D01*
X725179Y79057D01*
X725095Y79142D01*
X725008Y79224D01*
X724919Y79304D01*
X724827Y79380D01*
X724733Y79454D01*
X724636Y79524D01*
X724538Y79591D01*
X724437Y79655D01*
X724333Y79715D01*
X724228Y79772D01*
X724121Y79825D01*
X724013Y79875D01*
X723903Y79921D01*
X723791Y79963D01*
X723678Y80002D01*
X723564Y80037D01*
X723449Y80068D01*
X723332Y80096D01*
X723215Y80119D01*
X723098Y80139D01*
X722979Y80155D01*
X722860Y80167D01*
X722741Y80175D01*
X722622Y80179D01*
X722502Y80179D01*
X722383Y80175D01*
X722264Y80167D01*
X722145Y80155D01*
X722026Y80139D01*
X721909Y80119D01*
X721792Y80096D01*
X721675Y80068D01*
X721560Y80037D01*
X721446Y80002D01*
X721333Y79963D01*
X721221Y79921D01*
X721111Y79875D01*
X721003Y79825D01*
X720896Y79772D01*
X720791Y79715D01*
X720687Y79655D01*
X720586Y79591D01*
X720488Y79524D01*
X720391Y79454D01*
X720297Y79380D01*
X720205Y79304D01*
X720116Y79224D01*
X720029Y79142D01*
X719945Y79057D01*
X719864Y78969D01*
X719787Y78879D01*
X719712Y78786D01*
X719640Y78690D01*
X719571Y78592D01*
X719506Y78492D01*
X719444Y78390D01*
X719385Y78286D01*
X719330Y78180D01*
X719279Y78072D01*
X719231Y77963D01*
X719186Y77852D01*
X719146Y77740D01*
X719109Y77626D01*
X719076Y77511D01*
X719046Y77396D01*
X719021Y77279D01*
X718999Y77162D01*
X718982Y77043D01*
X718968Y76925D01*
X718958Y76806D01*
X718952Y76686D01*
X718950Y76567D01*
X718950Y74761D01*
X726175Y74761D01*
X711273Y75664D02*
X706757Y73858D01*
X711273Y75664D02*
X711361Y75701D01*
X711447Y75742D01*
X711532Y75786D01*
X711615Y75834D01*
X711695Y75885D01*
X711774Y75939D01*
X711850Y75997D01*
X711924Y76057D01*
X711996Y76121D01*
X712064Y76187D01*
X712130Y76257D01*
X712193Y76328D01*
X712254Y76403D01*
X712311Y76479D01*
X712364Y76558D01*
X712415Y76639D01*
X712462Y76722D01*
X712506Y76807D01*
X712546Y76894D01*
X712583Y76982D01*
X712616Y77072D01*
X712646Y77163D01*
X712671Y77255D01*
X712693Y77348D01*
X712711Y77442D01*
X712726Y77536D01*
X712736Y77631D01*
X712742Y77727D01*
X712745Y77822D01*
X712744Y77918D01*
X712738Y78013D01*
X712729Y78109D01*
X712716Y78203D01*
X712700Y78297D01*
X712679Y78391D01*
X712654Y78483D01*
X712626Y78574D01*
X712594Y78664D01*
X712559Y78753D01*
X712520Y78840D01*
X712477Y78926D01*
X712431Y79010D01*
X712381Y79091D01*
X712329Y79171D01*
X712273Y79249D01*
X712213Y79324D01*
X712151Y79396D01*
X712086Y79466D01*
X712018Y79534D01*
X711948Y79598D01*
X711875Y79660D01*
X711799Y79718D01*
X711721Y79774D01*
X711641Y79826D01*
X711559Y79875D01*
X711475Y79920D01*
X711389Y79962D01*
X711302Y80001D01*
X711213Y80036D01*
X711122Y80067D01*
X711031Y80094D01*
X710938Y80118D01*
X710845Y80138D01*
X710751Y80154D01*
X710656Y80166D01*
X710561Y80175D01*
X710465Y80179D01*
X710370Y80180D01*
X710123Y80173D01*
X709877Y80161D01*
X709631Y80143D01*
X709385Y80118D01*
X709141Y80088D01*
X708897Y80052D01*
X708654Y80011D01*
X708412Y79963D01*
X708171Y79909D01*
X707932Y79850D01*
X707694Y79785D01*
X707458Y79714D01*
X707223Y79638D01*
X706990Y79556D01*
X706760Y79468D01*
X706532Y79375D01*
X706305Y79277D01*
X706757Y73857D02*
X706669Y73820D01*
X706583Y73779D01*
X706498Y73735D01*
X706415Y73687D01*
X706335Y73636D01*
X706256Y73582D01*
X706180Y73524D01*
X706106Y73464D01*
X706034Y73400D01*
X705966Y73334D01*
X705900Y73264D01*
X705837Y73193D01*
X705776Y73118D01*
X705719Y73042D01*
X705666Y72963D01*
X705615Y72882D01*
X705568Y72799D01*
X705524Y72714D01*
X705484Y72627D01*
X705447Y72539D01*
X705414Y72449D01*
X705384Y72358D01*
X705359Y72266D01*
X705337Y72173D01*
X705319Y72079D01*
X705304Y71985D01*
X705294Y71890D01*
X705288Y71794D01*
X705285Y71699D01*
X705286Y71603D01*
X705292Y71508D01*
X705301Y71412D01*
X705314Y71318D01*
X705330Y71224D01*
X705351Y71130D01*
X705376Y71038D01*
X705404Y70947D01*
X705436Y70857D01*
X705471Y70768D01*
X705510Y70681D01*
X705553Y70595D01*
X705599Y70511D01*
X705649Y70430D01*
X705701Y70350D01*
X705757Y70272D01*
X705817Y70197D01*
X705879Y70125D01*
X705944Y70055D01*
X706012Y69987D01*
X706082Y69923D01*
X706155Y69861D01*
X706231Y69803D01*
X706309Y69747D01*
X706389Y69695D01*
X706471Y69646D01*
X706555Y69601D01*
X706641Y69559D01*
X706728Y69520D01*
X706817Y69485D01*
X706908Y69454D01*
X706999Y69427D01*
X707092Y69403D01*
X707185Y69383D01*
X707279Y69367D01*
X707374Y69355D01*
X707469Y69346D01*
X707565Y69342D01*
X707660Y69341D01*
X707661Y69342D02*
X708023Y69351D01*
X708385Y69369D01*
X708746Y69396D01*
X709106Y69431D01*
X709466Y69474D01*
X709825Y69526D01*
X710182Y69587D01*
X710537Y69656D01*
X710891Y69733D01*
X711243Y69819D01*
X711593Y69913D01*
X711941Y70016D01*
X712286Y70126D01*
X712628Y70245D01*
X699115Y69342D02*
X699115Y80179D01*
X699567Y84695D02*
X699567Y85598D01*
X698664Y85598D01*
X698664Y84695D01*
X699567Y84695D01*
X690192Y69342D02*
X685677Y69342D01*
X690192Y69342D02*
X690293Y69344D01*
X690394Y69350D01*
X690495Y69359D01*
X690596Y69372D01*
X690696Y69389D01*
X690795Y69410D01*
X690893Y69434D01*
X690990Y69462D01*
X691087Y69494D01*
X691182Y69529D01*
X691275Y69568D01*
X691367Y69610D01*
X691458Y69656D01*
X691547Y69705D01*
X691633Y69757D01*
X691718Y69813D01*
X691801Y69871D01*
X691881Y69933D01*
X691959Y69998D01*
X692035Y70065D01*
X692108Y70135D01*
X692178Y70208D01*
X692245Y70284D01*
X692310Y70362D01*
X692372Y70442D01*
X692430Y70525D01*
X692486Y70610D01*
X692538Y70696D01*
X692587Y70785D01*
X692633Y70876D01*
X692675Y70968D01*
X692714Y71061D01*
X692749Y71156D01*
X692781Y71253D01*
X692809Y71350D01*
X692833Y71448D01*
X692854Y71547D01*
X692871Y71647D01*
X692884Y71748D01*
X692893Y71849D01*
X692899Y71950D01*
X692901Y72051D01*
X692901Y77470D01*
X692899Y77571D01*
X692893Y77672D01*
X692884Y77773D01*
X692871Y77874D01*
X692854Y77974D01*
X692833Y78073D01*
X692809Y78171D01*
X692781Y78268D01*
X692749Y78365D01*
X692714Y78460D01*
X692675Y78553D01*
X692633Y78645D01*
X692587Y78736D01*
X692538Y78825D01*
X692486Y78911D01*
X692430Y78996D01*
X692372Y79079D01*
X692310Y79159D01*
X692245Y79237D01*
X692178Y79313D01*
X692108Y79386D01*
X692035Y79456D01*
X691959Y79523D01*
X691881Y79588D01*
X691801Y79650D01*
X691718Y79708D01*
X691633Y79764D01*
X691547Y79816D01*
X691458Y79865D01*
X691367Y79911D01*
X691275Y79953D01*
X691182Y79992D01*
X691087Y80027D01*
X690990Y80059D01*
X690893Y80087D01*
X690795Y80111D01*
X690696Y80132D01*
X690596Y80149D01*
X690495Y80162D01*
X690394Y80171D01*
X690293Y80177D01*
X690192Y80179D01*
X685677Y80179D01*
X685677Y66633D01*
X685679Y66532D01*
X685685Y66431D01*
X685694Y66330D01*
X685707Y66229D01*
X685724Y66129D01*
X685745Y66030D01*
X685769Y65932D01*
X685797Y65835D01*
X685829Y65738D01*
X685864Y65643D01*
X685903Y65550D01*
X685945Y65458D01*
X685991Y65367D01*
X686040Y65278D01*
X686092Y65192D01*
X686148Y65107D01*
X686206Y65024D01*
X686268Y64944D01*
X686333Y64866D01*
X686400Y64790D01*
X686470Y64717D01*
X686543Y64647D01*
X686619Y64580D01*
X686697Y64515D01*
X686777Y64453D01*
X686860Y64395D01*
X686945Y64339D01*
X687032Y64287D01*
X687120Y64238D01*
X687211Y64192D01*
X687303Y64150D01*
X687396Y64111D01*
X687491Y64076D01*
X687588Y64044D01*
X687685Y64016D01*
X687783Y63992D01*
X687882Y63971D01*
X687982Y63954D01*
X688083Y63941D01*
X688184Y63932D01*
X688285Y63926D01*
X688386Y63924D01*
X688386Y63923D02*
X691998Y63923D01*
X678239Y69342D02*
X678239Y80179D01*
X673723Y80179D01*
X673619Y80177D01*
X673516Y80171D01*
X673412Y80161D01*
X673309Y80147D01*
X673207Y80129D01*
X673106Y80108D01*
X673005Y80082D01*
X672906Y80053D01*
X672807Y80020D01*
X672710Y79983D01*
X672615Y79942D01*
X672521Y79898D01*
X672429Y79850D01*
X672339Y79799D01*
X672250Y79744D01*
X672164Y79686D01*
X672081Y79624D01*
X671999Y79560D01*
X671921Y79492D01*
X671845Y79422D01*
X671771Y79349D01*
X671701Y79272D01*
X671633Y79194D01*
X671569Y79112D01*
X671507Y79029D01*
X671449Y78943D01*
X671394Y78854D01*
X671343Y78764D01*
X671295Y78672D01*
X671251Y78578D01*
X671210Y78483D01*
X671173Y78386D01*
X671140Y78287D01*
X671111Y78188D01*
X671085Y78087D01*
X671064Y77986D01*
X671046Y77884D01*
X671032Y77781D01*
X671022Y77677D01*
X671016Y77574D01*
X671014Y77470D01*
X671014Y69342D01*
X661462Y69342D02*
X656946Y69342D01*
X661462Y69342D02*
X661563Y69344D01*
X661664Y69350D01*
X661765Y69359D01*
X661866Y69372D01*
X661966Y69389D01*
X662065Y69410D01*
X662163Y69434D01*
X662260Y69462D01*
X662357Y69494D01*
X662452Y69529D01*
X662545Y69568D01*
X662637Y69610D01*
X662728Y69656D01*
X662817Y69705D01*
X662903Y69757D01*
X662988Y69813D01*
X663071Y69871D01*
X663151Y69933D01*
X663229Y69998D01*
X663305Y70065D01*
X663378Y70135D01*
X663448Y70208D01*
X663515Y70284D01*
X663580Y70362D01*
X663642Y70442D01*
X663700Y70525D01*
X663756Y70610D01*
X663808Y70696D01*
X663857Y70785D01*
X663903Y70876D01*
X663945Y70968D01*
X663984Y71061D01*
X664019Y71156D01*
X664051Y71253D01*
X664079Y71350D01*
X664103Y71448D01*
X664124Y71547D01*
X664141Y71647D01*
X664154Y71748D01*
X664163Y71849D01*
X664169Y71950D01*
X664171Y72051D01*
X664171Y76567D01*
X664170Y76567D02*
X664168Y76686D01*
X664162Y76806D01*
X664152Y76925D01*
X664138Y77043D01*
X664121Y77162D01*
X664099Y77279D01*
X664074Y77396D01*
X664044Y77511D01*
X664011Y77626D01*
X663974Y77740D01*
X663934Y77852D01*
X663889Y77963D01*
X663841Y78072D01*
X663790Y78180D01*
X663735Y78286D01*
X663676Y78390D01*
X663614Y78492D01*
X663549Y78592D01*
X663480Y78690D01*
X663408Y78786D01*
X663333Y78879D01*
X663256Y78969D01*
X663175Y79057D01*
X663091Y79142D01*
X663004Y79224D01*
X662915Y79304D01*
X662823Y79380D01*
X662729Y79454D01*
X662632Y79524D01*
X662534Y79591D01*
X662433Y79655D01*
X662329Y79715D01*
X662224Y79772D01*
X662117Y79825D01*
X662009Y79875D01*
X661899Y79921D01*
X661787Y79963D01*
X661674Y80002D01*
X661560Y80037D01*
X661445Y80068D01*
X661328Y80096D01*
X661211Y80119D01*
X661094Y80139D01*
X660975Y80155D01*
X660856Y80167D01*
X660737Y80175D01*
X660618Y80179D01*
X660498Y80179D01*
X660379Y80175D01*
X660260Y80167D01*
X660141Y80155D01*
X660022Y80139D01*
X659905Y80119D01*
X659788Y80096D01*
X659671Y80068D01*
X659556Y80037D01*
X659442Y80002D01*
X659329Y79963D01*
X659217Y79921D01*
X659107Y79875D01*
X658999Y79825D01*
X658892Y79772D01*
X658787Y79715D01*
X658683Y79655D01*
X658582Y79591D01*
X658484Y79524D01*
X658387Y79454D01*
X658293Y79380D01*
X658201Y79304D01*
X658112Y79224D01*
X658025Y79142D01*
X657941Y79057D01*
X657860Y78969D01*
X657783Y78879D01*
X657708Y78786D01*
X657636Y78690D01*
X657567Y78592D01*
X657502Y78492D01*
X657440Y78390D01*
X657381Y78286D01*
X657326Y78180D01*
X657275Y78072D01*
X657227Y77963D01*
X657182Y77852D01*
X657142Y77740D01*
X657105Y77626D01*
X657072Y77511D01*
X657042Y77396D01*
X657017Y77279D01*
X656995Y77162D01*
X656978Y77043D01*
X656964Y76925D01*
X656954Y76806D01*
X656948Y76686D01*
X656946Y76567D01*
X656946Y74761D01*
X664171Y74761D01*
X643472Y69342D02*
X643472Y85598D01*
X643472Y69342D02*
X647988Y69342D01*
X648089Y69344D01*
X648190Y69350D01*
X648291Y69359D01*
X648392Y69372D01*
X648492Y69389D01*
X648591Y69410D01*
X648689Y69434D01*
X648786Y69462D01*
X648883Y69494D01*
X648978Y69529D01*
X649071Y69568D01*
X649163Y69610D01*
X649254Y69656D01*
X649343Y69705D01*
X649429Y69757D01*
X649514Y69813D01*
X649597Y69871D01*
X649677Y69933D01*
X649755Y69998D01*
X649831Y70065D01*
X649904Y70135D01*
X649974Y70208D01*
X650041Y70284D01*
X650106Y70362D01*
X650168Y70442D01*
X650226Y70525D01*
X650282Y70610D01*
X650334Y70696D01*
X650383Y70785D01*
X650429Y70876D01*
X650471Y70968D01*
X650510Y71061D01*
X650545Y71156D01*
X650577Y71253D01*
X650605Y71350D01*
X650629Y71448D01*
X650650Y71547D01*
X650667Y71647D01*
X650680Y71748D01*
X650689Y71849D01*
X650695Y71950D01*
X650697Y72051D01*
X650697Y77470D01*
X650695Y77571D01*
X650689Y77672D01*
X650680Y77773D01*
X650667Y77874D01*
X650650Y77974D01*
X650629Y78073D01*
X650605Y78171D01*
X650577Y78268D01*
X650545Y78365D01*
X650510Y78460D01*
X650471Y78553D01*
X650429Y78645D01*
X650383Y78736D01*
X650334Y78825D01*
X650282Y78911D01*
X650226Y78996D01*
X650168Y79079D01*
X650106Y79159D01*
X650041Y79237D01*
X649974Y79313D01*
X649904Y79386D01*
X649831Y79456D01*
X649755Y79523D01*
X649677Y79588D01*
X649597Y79650D01*
X649514Y79708D01*
X649429Y79764D01*
X649343Y79816D01*
X649254Y79865D01*
X649163Y79911D01*
X649071Y79953D01*
X648978Y79992D01*
X648883Y80027D01*
X648786Y80059D01*
X648689Y80087D01*
X648591Y80111D01*
X648492Y80132D01*
X648392Y80149D01*
X648291Y80162D01*
X648190Y80171D01*
X648089Y80177D01*
X647988Y80179D01*
X643472Y80179D01*
X627348Y78373D02*
X622833Y78373D01*
X622833Y78374D02*
X622700Y78372D01*
X622568Y78366D01*
X622436Y78356D01*
X622304Y78343D01*
X622172Y78325D01*
X622042Y78304D01*
X621911Y78279D01*
X621782Y78250D01*
X621654Y78217D01*
X621526Y78181D01*
X621400Y78141D01*
X621275Y78097D01*
X621151Y78049D01*
X621029Y77998D01*
X620908Y77943D01*
X620789Y77885D01*
X620671Y77823D01*
X620556Y77758D01*
X620442Y77689D01*
X620331Y77618D01*
X620222Y77542D01*
X620115Y77464D01*
X620010Y77383D01*
X619908Y77298D01*
X619808Y77211D01*
X619711Y77121D01*
X619616Y77028D01*
X619525Y76932D01*
X619436Y76834D01*
X619350Y76733D01*
X619267Y76629D01*
X619187Y76523D01*
X619111Y76415D01*
X619037Y76305D01*
X618967Y76192D01*
X618900Y76078D01*
X618837Y75961D01*
X618777Y75843D01*
X618720Y75723D01*
X618667Y75601D01*
X618618Y75478D01*
X618572Y75354D01*
X618530Y75228D01*
X618492Y75101D01*
X618457Y74973D01*
X618426Y74844D01*
X618399Y74715D01*
X618376Y74584D01*
X618356Y74453D01*
X618341Y74321D01*
X618329Y74189D01*
X618321Y74057D01*
X618317Y73924D01*
X618317Y73792D01*
X618321Y73659D01*
X618329Y73527D01*
X618341Y73395D01*
X618356Y73263D01*
X618376Y73132D01*
X618399Y73001D01*
X618426Y72872D01*
X618457Y72743D01*
X618492Y72615D01*
X618530Y72488D01*
X618572Y72362D01*
X618618Y72238D01*
X618667Y72115D01*
X618720Y71993D01*
X618777Y71873D01*
X618837Y71755D01*
X618900Y71638D01*
X618967Y71524D01*
X619037Y71411D01*
X619111Y71301D01*
X619187Y71193D01*
X619267Y71087D01*
X619350Y70983D01*
X619436Y70882D01*
X619525Y70784D01*
X619616Y70688D01*
X619711Y70595D01*
X619808Y70505D01*
X619908Y70418D01*
X620010Y70333D01*
X620115Y70252D01*
X620222Y70174D01*
X620331Y70098D01*
X620442Y70027D01*
X620556Y69958D01*
X620671Y69893D01*
X620789Y69831D01*
X620908Y69773D01*
X621029Y69718D01*
X621151Y69667D01*
X621275Y69619D01*
X621400Y69575D01*
X621526Y69535D01*
X621654Y69499D01*
X621782Y69466D01*
X621911Y69437D01*
X622042Y69412D01*
X622172Y69391D01*
X622304Y69373D01*
X622436Y69360D01*
X622568Y69350D01*
X622700Y69344D01*
X622833Y69342D01*
X627348Y69342D01*
X627348Y85598D01*
X622833Y85598D01*
X622714Y85596D01*
X622594Y85590D01*
X622475Y85580D01*
X622357Y85566D01*
X622238Y85549D01*
X622121Y85527D01*
X622004Y85502D01*
X621889Y85472D01*
X621774Y85439D01*
X621660Y85402D01*
X621548Y85362D01*
X621437Y85317D01*
X621328Y85269D01*
X621220Y85218D01*
X621114Y85163D01*
X621010Y85104D01*
X620908Y85042D01*
X620808Y84977D01*
X620710Y84908D01*
X620614Y84836D01*
X620521Y84761D01*
X620431Y84684D01*
X620343Y84603D01*
X620258Y84519D01*
X620176Y84432D01*
X620096Y84343D01*
X620020Y84251D01*
X619946Y84157D01*
X619876Y84060D01*
X619809Y83962D01*
X619745Y83861D01*
X619685Y83757D01*
X619628Y83652D01*
X619575Y83545D01*
X619525Y83437D01*
X619479Y83327D01*
X619437Y83215D01*
X619398Y83102D01*
X619363Y82988D01*
X619332Y82873D01*
X619304Y82756D01*
X619281Y82639D01*
X619261Y82522D01*
X619245Y82403D01*
X619233Y82284D01*
X619225Y82165D01*
X619221Y82046D01*
X619221Y81926D01*
X619225Y81807D01*
X619233Y81688D01*
X619245Y81569D01*
X619261Y81450D01*
X619281Y81333D01*
X619304Y81216D01*
X619332Y81099D01*
X619363Y80984D01*
X619398Y80870D01*
X619437Y80757D01*
X619479Y80645D01*
X619525Y80535D01*
X619575Y80427D01*
X619628Y80320D01*
X619685Y80215D01*
X619745Y80111D01*
X619809Y80010D01*
X619876Y79912D01*
X619946Y79815D01*
X620020Y79721D01*
X620096Y79629D01*
X620176Y79540D01*
X620258Y79453D01*
X620343Y79369D01*
X620431Y79288D01*
X620521Y79211D01*
X620614Y79136D01*
X620710Y79064D01*
X620808Y78995D01*
X620908Y78930D01*
X621010Y78868D01*
X621114Y78809D01*
X621220Y78754D01*
X621328Y78703D01*
X621437Y78655D01*
X621548Y78610D01*
X621660Y78570D01*
X621774Y78533D01*
X621889Y78500D01*
X622004Y78470D01*
X622121Y78445D01*
X622238Y78423D01*
X622357Y78406D01*
X622475Y78392D01*
X622594Y78382D01*
X622714Y78376D01*
X622833Y78374D01*
X613109Y63923D02*
X611303Y63923D01*
X605884Y80179D01*
X613109Y80179D02*
X609496Y69342D01*
X600048Y70697D02*
X600048Y71600D01*
X599145Y71600D01*
X599145Y70697D01*
X600048Y70697D01*
X600048Y77922D02*
X600048Y78825D01*
X599145Y78825D01*
X599145Y77922D01*
X600048Y77922D01*
X736769Y58928D02*
X736769Y46284D01*
X736770Y46284D02*
X736772Y46166D01*
X736778Y46048D01*
X736787Y45930D01*
X736801Y45813D01*
X736818Y45696D01*
X736839Y45579D01*
X736864Y45464D01*
X736893Y45349D01*
X736926Y45235D01*
X736962Y45123D01*
X737002Y45012D01*
X737045Y44902D01*
X737092Y44793D01*
X737142Y44686D01*
X737197Y44581D01*
X737254Y44478D01*
X737315Y44377D01*
X737379Y44277D01*
X737446Y44180D01*
X737516Y44085D01*
X737590Y43993D01*
X737666Y43902D01*
X737746Y43815D01*
X737828Y43730D01*
X737913Y43648D01*
X738000Y43568D01*
X738091Y43492D01*
X738183Y43418D01*
X738278Y43348D01*
X738375Y43281D01*
X738475Y43217D01*
X738576Y43156D01*
X738679Y43099D01*
X738784Y43044D01*
X738891Y42994D01*
X739000Y42947D01*
X739110Y42904D01*
X739221Y42864D01*
X739333Y42828D01*
X739447Y42795D01*
X739562Y42766D01*
X739677Y42741D01*
X739794Y42720D01*
X739911Y42703D01*
X740028Y42689D01*
X740146Y42680D01*
X740264Y42674D01*
X740382Y42672D01*
X742188Y42672D01*
X729841Y46284D02*
X729841Y49897D01*
X729839Y50016D01*
X729833Y50136D01*
X729823Y50255D01*
X729809Y50373D01*
X729792Y50492D01*
X729770Y50609D01*
X729745Y50726D01*
X729715Y50841D01*
X729682Y50956D01*
X729645Y51070D01*
X729605Y51182D01*
X729560Y51293D01*
X729512Y51402D01*
X729461Y51510D01*
X729406Y51616D01*
X729347Y51720D01*
X729285Y51822D01*
X729220Y51922D01*
X729151Y52020D01*
X729079Y52116D01*
X729004Y52209D01*
X728927Y52299D01*
X728846Y52387D01*
X728762Y52472D01*
X728675Y52554D01*
X728586Y52634D01*
X728494Y52710D01*
X728400Y52784D01*
X728303Y52854D01*
X728205Y52921D01*
X728104Y52985D01*
X728000Y53045D01*
X727895Y53102D01*
X727788Y53155D01*
X727680Y53205D01*
X727570Y53251D01*
X727458Y53293D01*
X727345Y53332D01*
X727231Y53367D01*
X727116Y53398D01*
X726999Y53426D01*
X726882Y53449D01*
X726765Y53469D01*
X726646Y53485D01*
X726527Y53497D01*
X726408Y53505D01*
X726289Y53509D01*
X726169Y53509D01*
X726050Y53505D01*
X725931Y53497D01*
X725812Y53485D01*
X725693Y53469D01*
X725576Y53449D01*
X725459Y53426D01*
X725342Y53398D01*
X725227Y53367D01*
X725113Y53332D01*
X725000Y53293D01*
X724888Y53251D01*
X724778Y53205D01*
X724670Y53155D01*
X724563Y53102D01*
X724458Y53045D01*
X724354Y52985D01*
X724253Y52921D01*
X724155Y52854D01*
X724058Y52784D01*
X723964Y52710D01*
X723872Y52634D01*
X723783Y52554D01*
X723696Y52472D01*
X723612Y52387D01*
X723531Y52299D01*
X723454Y52209D01*
X723379Y52116D01*
X723307Y52020D01*
X723238Y51922D01*
X723173Y51822D01*
X723111Y51720D01*
X723052Y51616D01*
X722997Y51510D01*
X722946Y51402D01*
X722898Y51293D01*
X722853Y51182D01*
X722813Y51070D01*
X722776Y50956D01*
X722743Y50841D01*
X722713Y50726D01*
X722688Y50609D01*
X722666Y50492D01*
X722649Y50373D01*
X722635Y50255D01*
X722625Y50136D01*
X722619Y50016D01*
X722617Y49897D01*
X722616Y49897D02*
X722616Y46284D01*
X722617Y46284D02*
X722619Y46165D01*
X722625Y46045D01*
X722635Y45926D01*
X722649Y45808D01*
X722666Y45689D01*
X722688Y45572D01*
X722713Y45455D01*
X722743Y45340D01*
X722776Y45225D01*
X722813Y45111D01*
X722853Y44999D01*
X722898Y44888D01*
X722946Y44779D01*
X722997Y44671D01*
X723052Y44565D01*
X723111Y44461D01*
X723173Y44359D01*
X723238Y44259D01*
X723307Y44161D01*
X723379Y44065D01*
X723454Y43972D01*
X723531Y43882D01*
X723612Y43794D01*
X723696Y43709D01*
X723783Y43627D01*
X723872Y43547D01*
X723964Y43471D01*
X724058Y43397D01*
X724155Y43327D01*
X724253Y43260D01*
X724354Y43196D01*
X724458Y43136D01*
X724563Y43079D01*
X724670Y43026D01*
X724778Y42976D01*
X724888Y42930D01*
X725000Y42888D01*
X725113Y42849D01*
X725227Y42814D01*
X725342Y42783D01*
X725459Y42755D01*
X725576Y42732D01*
X725693Y42712D01*
X725812Y42696D01*
X725931Y42684D01*
X726050Y42676D01*
X726169Y42672D01*
X726289Y42672D01*
X726408Y42676D01*
X726527Y42684D01*
X726646Y42696D01*
X726765Y42712D01*
X726882Y42732D01*
X726999Y42755D01*
X727116Y42783D01*
X727231Y42814D01*
X727345Y42849D01*
X727458Y42888D01*
X727570Y42930D01*
X727680Y42976D01*
X727788Y43026D01*
X727895Y43079D01*
X728000Y43136D01*
X728104Y43196D01*
X728205Y43260D01*
X728303Y43327D01*
X728400Y43397D01*
X728494Y43471D01*
X728586Y43547D01*
X728675Y43627D01*
X728762Y43709D01*
X728846Y43794D01*
X728927Y43882D01*
X729004Y43972D01*
X729079Y44065D01*
X729151Y44161D01*
X729220Y44259D01*
X729285Y44359D01*
X729347Y44461D01*
X729406Y44565D01*
X729461Y44671D01*
X729512Y44779D01*
X729560Y44888D01*
X729605Y44999D01*
X729645Y45111D01*
X729682Y45225D01*
X729715Y45340D01*
X729745Y45455D01*
X729770Y45572D01*
X729792Y45689D01*
X729809Y45808D01*
X729823Y45926D01*
X729833Y46045D01*
X729839Y46165D01*
X729841Y46284D01*
X715773Y42672D02*
X715773Y58928D01*
X715773Y53509D02*
X711258Y53509D01*
X711154Y53507D01*
X711051Y53501D01*
X710947Y53491D01*
X710844Y53477D01*
X710742Y53459D01*
X710641Y53438D01*
X710540Y53412D01*
X710441Y53383D01*
X710342Y53350D01*
X710245Y53313D01*
X710150Y53272D01*
X710056Y53228D01*
X709964Y53180D01*
X709874Y53129D01*
X709785Y53074D01*
X709699Y53016D01*
X709616Y52954D01*
X709534Y52890D01*
X709456Y52822D01*
X709380Y52752D01*
X709306Y52679D01*
X709236Y52602D01*
X709168Y52524D01*
X709104Y52442D01*
X709042Y52359D01*
X708984Y52273D01*
X708929Y52184D01*
X708878Y52094D01*
X708830Y52002D01*
X708786Y51908D01*
X708745Y51813D01*
X708708Y51716D01*
X708675Y51617D01*
X708646Y51518D01*
X708620Y51417D01*
X708599Y51316D01*
X708581Y51214D01*
X708567Y51111D01*
X708557Y51007D01*
X708551Y50904D01*
X708549Y50800D01*
X708548Y50800D02*
X708548Y42672D01*
X701184Y42672D02*
X701184Y53509D01*
X696669Y53509D01*
X696565Y53507D01*
X696462Y53501D01*
X696358Y53491D01*
X696255Y53477D01*
X696153Y53459D01*
X696052Y53438D01*
X695951Y53412D01*
X695852Y53383D01*
X695753Y53350D01*
X695656Y53313D01*
X695561Y53272D01*
X695467Y53228D01*
X695375Y53180D01*
X695285Y53129D01*
X695196Y53074D01*
X695110Y53016D01*
X695027Y52954D01*
X694945Y52890D01*
X694867Y52822D01*
X694791Y52752D01*
X694717Y52679D01*
X694647Y52602D01*
X694579Y52524D01*
X694515Y52442D01*
X694453Y52359D01*
X694395Y52273D01*
X694340Y52184D01*
X694289Y52094D01*
X694241Y52002D01*
X694197Y51908D01*
X694156Y51813D01*
X694119Y51716D01*
X694086Y51617D01*
X694057Y51518D01*
X694031Y51417D01*
X694010Y51316D01*
X693992Y51214D01*
X693978Y51111D01*
X693968Y51007D01*
X693962Y50904D01*
X693960Y50800D01*
X693959Y50800D02*
X693959Y42672D01*
X677980Y42672D02*
X677980Y58928D01*
X672562Y49897D01*
X667143Y58928D01*
X667143Y42672D01*
X660057Y42672D02*
X660057Y53509D01*
X660508Y58025D02*
X660508Y58928D01*
X659605Y58928D01*
X659605Y58025D01*
X660508Y58025D01*
X653532Y58928D02*
X653532Y45381D01*
X653530Y45280D01*
X653524Y45179D01*
X653515Y45078D01*
X653502Y44977D01*
X653485Y44877D01*
X653464Y44778D01*
X653440Y44680D01*
X653412Y44583D01*
X653380Y44486D01*
X653345Y44391D01*
X653306Y44298D01*
X653264Y44206D01*
X653218Y44115D01*
X653169Y44026D01*
X653117Y43940D01*
X653061Y43855D01*
X653003Y43772D01*
X652941Y43692D01*
X652876Y43614D01*
X652809Y43538D01*
X652739Y43465D01*
X652666Y43395D01*
X652590Y43328D01*
X652512Y43263D01*
X652432Y43201D01*
X652349Y43143D01*
X652264Y43087D01*
X652178Y43035D01*
X652089Y42986D01*
X651998Y42940D01*
X651906Y42898D01*
X651813Y42859D01*
X651718Y42824D01*
X651621Y42792D01*
X651524Y42764D01*
X651426Y42740D01*
X651327Y42719D01*
X651227Y42702D01*
X651126Y42689D01*
X651025Y42680D01*
X650924Y42674D01*
X650823Y42672D01*
X645196Y45381D02*
X645196Y58928D01*
X645195Y45381D02*
X645193Y45280D01*
X645187Y45179D01*
X645178Y45078D01*
X645165Y44977D01*
X645148Y44877D01*
X645127Y44778D01*
X645103Y44680D01*
X645075Y44583D01*
X645043Y44486D01*
X645008Y44391D01*
X644969Y44298D01*
X644927Y44206D01*
X644881Y44115D01*
X644832Y44026D01*
X644780Y43940D01*
X644724Y43855D01*
X644666Y43772D01*
X644604Y43692D01*
X644539Y43614D01*
X644472Y43538D01*
X644402Y43465D01*
X644329Y43395D01*
X644253Y43328D01*
X644175Y43263D01*
X644095Y43201D01*
X644012Y43143D01*
X643927Y43087D01*
X643841Y43035D01*
X643752Y42986D01*
X643661Y42940D01*
X643569Y42898D01*
X643476Y42859D01*
X643381Y42824D01*
X643284Y42792D01*
X643187Y42764D01*
X643089Y42740D01*
X642990Y42719D01*
X642890Y42702D01*
X642789Y42689D01*
X642688Y42680D01*
X642587Y42674D01*
X642486Y42672D01*
X634387Y42672D02*
X629871Y42672D01*
X634387Y42672D02*
X634488Y42674D01*
X634589Y42680D01*
X634690Y42689D01*
X634791Y42702D01*
X634891Y42719D01*
X634990Y42740D01*
X635088Y42764D01*
X635185Y42792D01*
X635282Y42824D01*
X635377Y42859D01*
X635470Y42898D01*
X635562Y42940D01*
X635653Y42986D01*
X635742Y43035D01*
X635828Y43087D01*
X635913Y43143D01*
X635996Y43201D01*
X636076Y43263D01*
X636154Y43328D01*
X636230Y43395D01*
X636303Y43465D01*
X636373Y43538D01*
X636440Y43614D01*
X636505Y43692D01*
X636567Y43772D01*
X636625Y43855D01*
X636681Y43940D01*
X636733Y44026D01*
X636782Y44115D01*
X636828Y44206D01*
X636870Y44298D01*
X636909Y44391D01*
X636944Y44486D01*
X636976Y44583D01*
X637004Y44680D01*
X637028Y44778D01*
X637049Y44877D01*
X637066Y44977D01*
X637079Y45078D01*
X637088Y45179D01*
X637094Y45280D01*
X637096Y45381D01*
X637096Y49897D01*
X637094Y50016D01*
X637088Y50136D01*
X637078Y50255D01*
X637064Y50373D01*
X637047Y50492D01*
X637025Y50609D01*
X637000Y50726D01*
X636970Y50841D01*
X636937Y50956D01*
X636900Y51070D01*
X636860Y51182D01*
X636815Y51293D01*
X636767Y51402D01*
X636716Y51510D01*
X636661Y51616D01*
X636602Y51720D01*
X636540Y51822D01*
X636475Y51922D01*
X636406Y52020D01*
X636334Y52116D01*
X636259Y52209D01*
X636182Y52299D01*
X636101Y52387D01*
X636017Y52472D01*
X635930Y52554D01*
X635841Y52634D01*
X635749Y52710D01*
X635655Y52784D01*
X635558Y52854D01*
X635460Y52921D01*
X635359Y52985D01*
X635255Y53045D01*
X635150Y53102D01*
X635043Y53155D01*
X634935Y53205D01*
X634825Y53251D01*
X634713Y53293D01*
X634600Y53332D01*
X634486Y53367D01*
X634371Y53398D01*
X634254Y53426D01*
X634137Y53449D01*
X634020Y53469D01*
X633901Y53485D01*
X633782Y53497D01*
X633663Y53505D01*
X633544Y53509D01*
X633424Y53509D01*
X633305Y53505D01*
X633186Y53497D01*
X633067Y53485D01*
X632948Y53469D01*
X632831Y53449D01*
X632714Y53426D01*
X632597Y53398D01*
X632482Y53367D01*
X632368Y53332D01*
X632255Y53293D01*
X632143Y53251D01*
X632033Y53205D01*
X631925Y53155D01*
X631818Y53102D01*
X631713Y53045D01*
X631609Y52985D01*
X631508Y52921D01*
X631410Y52854D01*
X631313Y52784D01*
X631219Y52710D01*
X631127Y52634D01*
X631038Y52554D01*
X630951Y52472D01*
X630867Y52387D01*
X630786Y52299D01*
X630709Y52209D01*
X630634Y52116D01*
X630562Y52020D01*
X630493Y51922D01*
X630428Y51822D01*
X630366Y51720D01*
X630307Y51616D01*
X630252Y51510D01*
X630201Y51402D01*
X630153Y51293D01*
X630108Y51182D01*
X630068Y51070D01*
X630031Y50956D01*
X629998Y50841D01*
X629968Y50726D01*
X629943Y50609D01*
X629921Y50492D01*
X629904Y50373D01*
X629890Y50255D01*
X629880Y50136D01*
X629874Y50016D01*
X629872Y49897D01*
X629871Y49897D02*
X629871Y48091D01*
X637096Y48091D01*
X622943Y42672D02*
X622943Y53509D01*
X617524Y53509D01*
X617524Y51703D01*
X613147Y42672D02*
X612244Y42672D01*
X613147Y42672D02*
X613147Y43575D01*
X612244Y43575D01*
X612244Y42672D01*
X613598Y39060D01*
X592912Y58928D02*
X592787Y58926D01*
X592662Y58920D01*
X592537Y58911D01*
X592413Y58897D01*
X592289Y58880D01*
X592165Y58859D01*
X592043Y58834D01*
X591921Y58805D01*
X591800Y58773D01*
X591680Y58737D01*
X591561Y58697D01*
X591444Y58654D01*
X591328Y58607D01*
X591213Y58556D01*
X591101Y58502D01*
X590989Y58444D01*
X590880Y58384D01*
X590773Y58319D01*
X590667Y58252D01*
X590564Y58181D01*
X590463Y58107D01*
X590364Y58030D01*
X590268Y57950D01*
X590174Y57867D01*
X590083Y57782D01*
X589994Y57693D01*
X589909Y57602D01*
X589826Y57508D01*
X589746Y57412D01*
X589669Y57313D01*
X589595Y57212D01*
X589524Y57109D01*
X589457Y57003D01*
X589392Y56896D01*
X589332Y56787D01*
X589274Y56675D01*
X589220Y56563D01*
X589169Y56448D01*
X589122Y56332D01*
X589079Y56215D01*
X589039Y56096D01*
X589003Y55976D01*
X588971Y55855D01*
X588942Y55733D01*
X588917Y55611D01*
X588896Y55487D01*
X588879Y55363D01*
X588865Y55239D01*
X588856Y55114D01*
X588850Y54989D01*
X588848Y54864D01*
X592912Y58928D02*
X593055Y58926D01*
X593197Y58920D01*
X593340Y58910D01*
X593482Y58897D01*
X593623Y58879D01*
X593765Y58858D01*
X593905Y58833D01*
X594045Y58804D01*
X594184Y58771D01*
X594322Y58734D01*
X594459Y58694D01*
X594594Y58650D01*
X594729Y58602D01*
X594862Y58550D01*
X594994Y58495D01*
X595124Y58436D01*
X595252Y58374D01*
X595379Y58308D01*
X595504Y58239D01*
X595627Y58167D01*
X595748Y58091D01*
X595866Y58012D01*
X595983Y57929D01*
X596097Y57844D01*
X596209Y57755D01*
X596318Y57664D01*
X596425Y57569D01*
X596530Y57472D01*
X596631Y57371D01*
X596730Y57268D01*
X596826Y57163D01*
X596919Y57054D01*
X597009Y56943D01*
X597096Y56830D01*
X597180Y56715D01*
X597260Y56597D01*
X597338Y56477D01*
X597412Y56355D01*
X597482Y56231D01*
X597550Y56105D01*
X597613Y55977D01*
X597674Y55848D01*
X597731Y55717D01*
X597784Y55585D01*
X597833Y55451D01*
X597879Y55316D01*
X590203Y51703D02*
X590109Y51795D01*
X590019Y51889D01*
X589931Y51986D01*
X589846Y52086D01*
X589764Y52188D01*
X589685Y52293D01*
X589610Y52400D01*
X589538Y52509D01*
X589469Y52620D01*
X589403Y52734D01*
X589341Y52849D01*
X589282Y52966D01*
X589227Y53085D01*
X589176Y53205D01*
X589128Y53327D01*
X589083Y53450D01*
X589043Y53574D01*
X589006Y53700D01*
X588973Y53827D01*
X588944Y53954D01*
X588918Y54083D01*
X588897Y54212D01*
X588879Y54342D01*
X588866Y54472D01*
X588856Y54602D01*
X588850Y54733D01*
X588848Y54864D01*
X590203Y51703D02*
X597879Y42672D01*
X588848Y42672D01*
X582248Y50800D02*
X582244Y51120D01*
X582233Y51439D01*
X582214Y51759D01*
X582187Y52077D01*
X582153Y52395D01*
X582111Y52712D01*
X582061Y53028D01*
X582004Y53343D01*
X581940Y53656D01*
X581868Y53968D01*
X581789Y54278D01*
X581702Y54585D01*
X581608Y54891D01*
X581507Y55194D01*
X581398Y55495D01*
X581283Y55793D01*
X581160Y56089D01*
X581030Y56381D01*
X580893Y56670D01*
X580893Y56671D02*
X580854Y56779D01*
X580811Y56886D01*
X580765Y56991D01*
X580714Y57095D01*
X580661Y57197D01*
X580604Y57297D01*
X580543Y57395D01*
X580479Y57490D01*
X580412Y57584D01*
X580341Y57675D01*
X580268Y57764D01*
X580191Y57850D01*
X580112Y57933D01*
X580030Y58014D01*
X579945Y58092D01*
X579857Y58166D01*
X579767Y58238D01*
X579675Y58306D01*
X579580Y58372D01*
X579483Y58434D01*
X579384Y58492D01*
X579282Y58548D01*
X579180Y58599D01*
X579075Y58647D01*
X578969Y58692D01*
X578861Y58733D01*
X578752Y58770D01*
X578642Y58803D01*
X578530Y58832D01*
X578418Y58858D01*
X578305Y58880D01*
X578191Y58897D01*
X578077Y58911D01*
X577962Y58921D01*
X577847Y58927D01*
X577732Y58929D01*
X577732Y58928D02*
X577617Y58926D01*
X577502Y58920D01*
X577387Y58910D01*
X577273Y58896D01*
X577159Y58879D01*
X577046Y58857D01*
X576934Y58831D01*
X576822Y58802D01*
X576712Y58769D01*
X576603Y58732D01*
X576495Y58691D01*
X576389Y58646D01*
X576285Y58598D01*
X576182Y58547D01*
X576081Y58491D01*
X575981Y58433D01*
X575884Y58371D01*
X575790Y58306D01*
X575697Y58237D01*
X575607Y58165D01*
X575519Y58091D01*
X575434Y58013D01*
X575352Y57932D01*
X575273Y57849D01*
X575196Y57763D01*
X575123Y57674D01*
X575052Y57583D01*
X574985Y57489D01*
X574921Y57394D01*
X574860Y57296D01*
X574803Y57196D01*
X574750Y57094D01*
X574699Y56990D01*
X574653Y56885D01*
X574610Y56778D01*
X574571Y56670D01*
X574572Y56670D02*
X574435Y56381D01*
X574305Y56089D01*
X574182Y55793D01*
X574067Y55495D01*
X573958Y55194D01*
X573857Y54891D01*
X573763Y54585D01*
X573676Y54278D01*
X573597Y53968D01*
X573525Y53656D01*
X573461Y53343D01*
X573404Y53028D01*
X573354Y52712D01*
X573312Y52395D01*
X573278Y52077D01*
X573251Y51759D01*
X573232Y51439D01*
X573221Y51120D01*
X573217Y50800D01*
X582247Y50800D02*
X582243Y50480D01*
X582232Y50161D01*
X582213Y49841D01*
X582186Y49523D01*
X582152Y49205D01*
X582110Y48888D01*
X582060Y48572D01*
X582003Y48257D01*
X581939Y47944D01*
X581867Y47632D01*
X581788Y47322D01*
X581701Y47015D01*
X581607Y46709D01*
X581506Y46406D01*
X581397Y46105D01*
X581282Y45807D01*
X581159Y45511D01*
X581029Y45219D01*
X580892Y44930D01*
X580893Y44930D02*
X580854Y44822D01*
X580811Y44715D01*
X580765Y44610D01*
X580714Y44506D01*
X580661Y44404D01*
X580604Y44304D01*
X580543Y44206D01*
X580479Y44111D01*
X580412Y44017D01*
X580341Y43926D01*
X580268Y43837D01*
X580191Y43751D01*
X580112Y43668D01*
X580030Y43587D01*
X579945Y43509D01*
X579857Y43435D01*
X579767Y43363D01*
X579674Y43294D01*
X579580Y43229D01*
X579483Y43167D01*
X579383Y43109D01*
X579282Y43053D01*
X579180Y43002D01*
X579075Y42954D01*
X578969Y42909D01*
X578861Y42868D01*
X578752Y42831D01*
X578642Y42798D01*
X578530Y42769D01*
X578418Y42743D01*
X578305Y42721D01*
X578191Y42704D01*
X578077Y42690D01*
X577962Y42680D01*
X577847Y42674D01*
X577732Y42672D01*
X574572Y44930D02*
X574435Y45219D01*
X574305Y45511D01*
X574182Y45807D01*
X574067Y46105D01*
X573958Y46406D01*
X573857Y46709D01*
X573763Y47015D01*
X573676Y47322D01*
X573597Y47632D01*
X573525Y47944D01*
X573461Y48257D01*
X573404Y48572D01*
X573354Y48888D01*
X573312Y49205D01*
X573278Y49523D01*
X573251Y49841D01*
X573232Y50161D01*
X573221Y50480D01*
X573217Y50800D01*
X574571Y44930D02*
X574610Y44822D01*
X574653Y44715D01*
X574699Y44610D01*
X574750Y44506D01*
X574803Y44404D01*
X574861Y44304D01*
X574921Y44206D01*
X574985Y44111D01*
X575052Y44017D01*
X575123Y43926D01*
X575196Y43837D01*
X575273Y43751D01*
X575352Y43668D01*
X575434Y43587D01*
X575519Y43509D01*
X575607Y43435D01*
X575697Y43363D01*
X575790Y43294D01*
X575884Y43229D01*
X575981Y43167D01*
X576081Y43109D01*
X576182Y43053D01*
X576285Y43002D01*
X576389Y42954D01*
X576495Y42909D01*
X576603Y42868D01*
X576712Y42831D01*
X576822Y42798D01*
X576934Y42769D01*
X577046Y42743D01*
X577159Y42721D01*
X577273Y42704D01*
X577387Y42690D01*
X577502Y42680D01*
X577617Y42674D01*
X577732Y42672D01*
X581345Y46284D02*
X574120Y55316D01*
X566617Y55316D02*
X562101Y58928D01*
X562101Y42672D01*
X557586Y42672D02*
X566617Y42672D01*
X550986Y47188D02*
X550984Y47321D01*
X550978Y47453D01*
X550968Y47585D01*
X550955Y47717D01*
X550937Y47849D01*
X550916Y47979D01*
X550891Y48110D01*
X550862Y48239D01*
X550829Y48367D01*
X550793Y48495D01*
X550753Y48621D01*
X550709Y48746D01*
X550661Y48870D01*
X550610Y48992D01*
X550555Y49113D01*
X550497Y49232D01*
X550435Y49350D01*
X550370Y49465D01*
X550301Y49579D01*
X550230Y49690D01*
X550154Y49799D01*
X550076Y49906D01*
X549995Y50011D01*
X549910Y50113D01*
X549823Y50213D01*
X549733Y50310D01*
X549640Y50405D01*
X549544Y50496D01*
X549446Y50585D01*
X549345Y50671D01*
X549241Y50754D01*
X549135Y50834D01*
X549027Y50910D01*
X548917Y50984D01*
X548804Y51054D01*
X548690Y51121D01*
X548573Y51184D01*
X548455Y51244D01*
X548335Y51301D01*
X548213Y51354D01*
X548090Y51403D01*
X547966Y51449D01*
X547840Y51491D01*
X547713Y51529D01*
X547585Y51564D01*
X547456Y51595D01*
X547327Y51622D01*
X547196Y51645D01*
X547065Y51665D01*
X546933Y51680D01*
X546801Y51692D01*
X546669Y51700D01*
X546536Y51704D01*
X546404Y51704D01*
X546271Y51700D01*
X546139Y51692D01*
X546007Y51680D01*
X545875Y51665D01*
X545744Y51645D01*
X545613Y51622D01*
X545484Y51595D01*
X545355Y51564D01*
X545227Y51529D01*
X545100Y51491D01*
X544974Y51449D01*
X544850Y51403D01*
X544727Y51354D01*
X544605Y51301D01*
X544485Y51244D01*
X544367Y51184D01*
X544250Y51121D01*
X544136Y51054D01*
X544023Y50984D01*
X543913Y50910D01*
X543805Y50834D01*
X543699Y50754D01*
X543595Y50671D01*
X543494Y50585D01*
X543396Y50496D01*
X543300Y50405D01*
X543207Y50310D01*
X543117Y50213D01*
X543030Y50113D01*
X542945Y50011D01*
X542864Y49906D01*
X542786Y49799D01*
X542710Y49690D01*
X542639Y49579D01*
X542570Y49465D01*
X542505Y49350D01*
X542443Y49232D01*
X542385Y49113D01*
X542330Y48992D01*
X542279Y48870D01*
X542231Y48746D01*
X542187Y48621D01*
X542147Y48495D01*
X542111Y48367D01*
X542078Y48239D01*
X542049Y48110D01*
X542024Y47979D01*
X542003Y47849D01*
X541985Y47717D01*
X541972Y47585D01*
X541962Y47453D01*
X541956Y47321D01*
X541954Y47188D01*
X541956Y47055D01*
X541962Y46923D01*
X541972Y46791D01*
X541985Y46659D01*
X542003Y46527D01*
X542024Y46397D01*
X542049Y46266D01*
X542078Y46137D01*
X542111Y46009D01*
X542147Y45881D01*
X542187Y45755D01*
X542231Y45630D01*
X542279Y45506D01*
X542330Y45384D01*
X542385Y45263D01*
X542443Y45144D01*
X542505Y45026D01*
X542570Y44911D01*
X542639Y44797D01*
X542710Y44686D01*
X542786Y44577D01*
X542864Y44470D01*
X542945Y44365D01*
X543030Y44263D01*
X543117Y44163D01*
X543207Y44066D01*
X543300Y43971D01*
X543396Y43880D01*
X543494Y43791D01*
X543595Y43705D01*
X543699Y43622D01*
X543805Y43542D01*
X543913Y43466D01*
X544023Y43392D01*
X544136Y43322D01*
X544250Y43255D01*
X544367Y43192D01*
X544485Y43132D01*
X544605Y43075D01*
X544727Y43022D01*
X544850Y42973D01*
X544974Y42927D01*
X545100Y42885D01*
X545227Y42847D01*
X545355Y42812D01*
X545484Y42781D01*
X545613Y42754D01*
X545744Y42731D01*
X545875Y42711D01*
X546007Y42696D01*
X546139Y42684D01*
X546271Y42676D01*
X546404Y42672D01*
X546536Y42672D01*
X546669Y42676D01*
X546801Y42684D01*
X546933Y42696D01*
X547065Y42711D01*
X547196Y42731D01*
X547327Y42754D01*
X547456Y42781D01*
X547585Y42812D01*
X547713Y42847D01*
X547840Y42885D01*
X547966Y42927D01*
X548090Y42973D01*
X548213Y43022D01*
X548335Y43075D01*
X548455Y43132D01*
X548573Y43192D01*
X548690Y43255D01*
X548804Y43322D01*
X548917Y43392D01*
X549027Y43466D01*
X549135Y43542D01*
X549241Y43622D01*
X549345Y43705D01*
X549446Y43791D01*
X549544Y43880D01*
X549640Y43971D01*
X549733Y44066D01*
X549823Y44163D01*
X549910Y44263D01*
X549995Y44365D01*
X550076Y44470D01*
X550154Y44577D01*
X550230Y44686D01*
X550301Y44797D01*
X550370Y44911D01*
X550435Y45026D01*
X550497Y45144D01*
X550555Y45263D01*
X550610Y45384D01*
X550661Y45506D01*
X550709Y45630D01*
X550753Y45755D01*
X550793Y45881D01*
X550829Y46009D01*
X550862Y46137D01*
X550891Y46266D01*
X550916Y46397D01*
X550937Y46527D01*
X550955Y46659D01*
X550968Y46791D01*
X550978Y46923D01*
X550984Y47055D01*
X550986Y47188D01*
X550082Y55316D02*
X550080Y55435D01*
X550074Y55555D01*
X550064Y55674D01*
X550050Y55792D01*
X550033Y55911D01*
X550011Y56028D01*
X549986Y56145D01*
X549956Y56260D01*
X549923Y56375D01*
X549886Y56489D01*
X549846Y56601D01*
X549801Y56712D01*
X549753Y56821D01*
X549702Y56929D01*
X549647Y57035D01*
X549588Y57139D01*
X549526Y57241D01*
X549461Y57341D01*
X549392Y57439D01*
X549320Y57535D01*
X549245Y57628D01*
X549168Y57718D01*
X549087Y57806D01*
X549003Y57891D01*
X548916Y57973D01*
X548827Y58053D01*
X548735Y58129D01*
X548641Y58203D01*
X548544Y58273D01*
X548446Y58340D01*
X548345Y58404D01*
X548241Y58464D01*
X548136Y58521D01*
X548029Y58574D01*
X547921Y58624D01*
X547811Y58670D01*
X547699Y58712D01*
X547586Y58751D01*
X547472Y58786D01*
X547357Y58817D01*
X547240Y58845D01*
X547123Y58868D01*
X547006Y58888D01*
X546887Y58904D01*
X546768Y58916D01*
X546649Y58924D01*
X546530Y58928D01*
X546410Y58928D01*
X546291Y58924D01*
X546172Y58916D01*
X546053Y58904D01*
X545934Y58888D01*
X545817Y58868D01*
X545700Y58845D01*
X545583Y58817D01*
X545468Y58786D01*
X545354Y58751D01*
X545241Y58712D01*
X545129Y58670D01*
X545019Y58624D01*
X544911Y58574D01*
X544804Y58521D01*
X544699Y58464D01*
X544595Y58404D01*
X544494Y58340D01*
X544396Y58273D01*
X544299Y58203D01*
X544205Y58129D01*
X544113Y58053D01*
X544024Y57973D01*
X543937Y57891D01*
X543853Y57806D01*
X543772Y57718D01*
X543695Y57628D01*
X543620Y57535D01*
X543548Y57439D01*
X543479Y57341D01*
X543414Y57241D01*
X543352Y57139D01*
X543293Y57035D01*
X543238Y56929D01*
X543187Y56821D01*
X543139Y56712D01*
X543094Y56601D01*
X543054Y56489D01*
X543017Y56375D01*
X542984Y56260D01*
X542954Y56145D01*
X542929Y56028D01*
X542907Y55911D01*
X542890Y55792D01*
X542876Y55674D01*
X542866Y55555D01*
X542860Y55435D01*
X542858Y55316D01*
X542860Y55197D01*
X542866Y55077D01*
X542876Y54958D01*
X542890Y54840D01*
X542907Y54721D01*
X542929Y54604D01*
X542954Y54487D01*
X542984Y54372D01*
X543017Y54257D01*
X543054Y54143D01*
X543094Y54031D01*
X543139Y53920D01*
X543187Y53811D01*
X543238Y53703D01*
X543293Y53597D01*
X543352Y53493D01*
X543414Y53391D01*
X543479Y53291D01*
X543548Y53193D01*
X543620Y53097D01*
X543695Y53004D01*
X543772Y52914D01*
X543853Y52826D01*
X543937Y52741D01*
X544024Y52659D01*
X544113Y52579D01*
X544205Y52503D01*
X544299Y52429D01*
X544396Y52359D01*
X544494Y52292D01*
X544595Y52228D01*
X544699Y52168D01*
X544804Y52111D01*
X544911Y52058D01*
X545019Y52008D01*
X545129Y51962D01*
X545241Y51920D01*
X545354Y51881D01*
X545468Y51846D01*
X545583Y51815D01*
X545700Y51787D01*
X545817Y51764D01*
X545934Y51744D01*
X546053Y51728D01*
X546172Y51716D01*
X546291Y51708D01*
X546410Y51704D01*
X546530Y51704D01*
X546649Y51708D01*
X546768Y51716D01*
X546887Y51728D01*
X547006Y51744D01*
X547123Y51764D01*
X547240Y51787D01*
X547357Y51815D01*
X547472Y51846D01*
X547586Y51881D01*
X547699Y51920D01*
X547811Y51962D01*
X547921Y52008D01*
X548029Y52058D01*
X548136Y52111D01*
X548241Y52168D01*
X548345Y52228D01*
X548446Y52292D01*
X548544Y52359D01*
X548641Y52429D01*
X548735Y52503D01*
X548827Y52579D01*
X548916Y52659D01*
X549003Y52741D01*
X549087Y52826D01*
X549168Y52914D01*
X549245Y53004D01*
X549320Y53097D01*
X549392Y53193D01*
X549461Y53291D01*
X549526Y53391D01*
X549588Y53493D01*
X549647Y53597D01*
X549702Y53703D01*
X549753Y53811D01*
X549801Y53920D01*
X549846Y54031D01*
X549886Y54143D01*
X549923Y54257D01*
X549956Y54372D01*
X549986Y54487D01*
X550011Y54604D01*
X550033Y54721D01*
X550050Y54840D01*
X550064Y54958D01*
X550074Y55077D01*
X550080Y55197D01*
X550082Y55316D01*
X736769Y16002D02*
X742188Y32258D01*
X731351Y32258D02*
X736769Y16002D01*
X725654Y28646D02*
X721138Y32258D01*
X721138Y16002D01*
X716623Y16002D02*
X725654Y16002D01*
X710648Y16002D02*
X710648Y16905D01*
X709745Y16905D01*
X709745Y16002D01*
X710648Y16002D01*
X694739Y28194D02*
X694741Y28319D01*
X694747Y28444D01*
X694756Y28569D01*
X694770Y28693D01*
X694787Y28817D01*
X694808Y28941D01*
X694833Y29063D01*
X694862Y29185D01*
X694894Y29306D01*
X694930Y29426D01*
X694970Y29545D01*
X695013Y29662D01*
X695060Y29778D01*
X695111Y29893D01*
X695165Y30005D01*
X695223Y30117D01*
X695283Y30226D01*
X695348Y30333D01*
X695415Y30439D01*
X695486Y30542D01*
X695560Y30643D01*
X695637Y30742D01*
X695717Y30838D01*
X695800Y30932D01*
X695885Y31023D01*
X695974Y31112D01*
X696065Y31197D01*
X696159Y31280D01*
X696255Y31360D01*
X696354Y31437D01*
X696455Y31511D01*
X696558Y31582D01*
X696664Y31649D01*
X696771Y31714D01*
X696880Y31774D01*
X696992Y31832D01*
X697104Y31886D01*
X697219Y31937D01*
X697335Y31984D01*
X697452Y32027D01*
X697571Y32067D01*
X697691Y32103D01*
X697812Y32135D01*
X697934Y32164D01*
X698056Y32189D01*
X698180Y32210D01*
X698304Y32227D01*
X698428Y32241D01*
X698553Y32250D01*
X698678Y32256D01*
X698803Y32258D01*
X698946Y32256D01*
X699088Y32250D01*
X699231Y32240D01*
X699373Y32227D01*
X699514Y32209D01*
X699656Y32188D01*
X699796Y32163D01*
X699936Y32134D01*
X700075Y32101D01*
X700213Y32064D01*
X700350Y32024D01*
X700485Y31980D01*
X700620Y31932D01*
X700753Y31880D01*
X700885Y31825D01*
X701015Y31766D01*
X701143Y31704D01*
X701270Y31638D01*
X701395Y31569D01*
X701518Y31497D01*
X701639Y31421D01*
X701757Y31342D01*
X701874Y31259D01*
X701988Y31174D01*
X702100Y31085D01*
X702209Y30994D01*
X702316Y30899D01*
X702421Y30802D01*
X702522Y30701D01*
X702621Y30598D01*
X702717Y30493D01*
X702810Y30384D01*
X702900Y30273D01*
X702987Y30160D01*
X703071Y30045D01*
X703151Y29927D01*
X703229Y29807D01*
X703303Y29685D01*
X703373Y29561D01*
X703441Y29435D01*
X703504Y29307D01*
X703565Y29178D01*
X703622Y29047D01*
X703675Y28915D01*
X703724Y28781D01*
X703770Y28646D01*
X696094Y25033D02*
X696000Y25125D01*
X695910Y25219D01*
X695822Y25316D01*
X695737Y25416D01*
X695655Y25518D01*
X695576Y25623D01*
X695501Y25730D01*
X695429Y25839D01*
X695360Y25950D01*
X695294Y26064D01*
X695232Y26179D01*
X695173Y26296D01*
X695118Y26415D01*
X695067Y26535D01*
X695019Y26657D01*
X694974Y26780D01*
X694934Y26904D01*
X694897Y27030D01*
X694864Y27157D01*
X694835Y27284D01*
X694809Y27413D01*
X694788Y27542D01*
X694770Y27672D01*
X694757Y27802D01*
X694747Y27932D01*
X694741Y28063D01*
X694739Y28194D01*
X696094Y25033D02*
X703770Y16002D01*
X694739Y16002D01*
X679663Y22324D02*
X668826Y22324D01*
X648783Y32258D02*
X648658Y32256D01*
X648533Y32250D01*
X648408Y32241D01*
X648284Y32227D01*
X648160Y32210D01*
X648036Y32189D01*
X647914Y32164D01*
X647792Y32135D01*
X647671Y32103D01*
X647551Y32067D01*
X647432Y32027D01*
X647315Y31984D01*
X647199Y31937D01*
X647084Y31886D01*
X646972Y31832D01*
X646860Y31774D01*
X646751Y31714D01*
X646644Y31649D01*
X646538Y31582D01*
X646435Y31511D01*
X646334Y31437D01*
X646235Y31360D01*
X646139Y31280D01*
X646045Y31197D01*
X645954Y31112D01*
X645865Y31023D01*
X645780Y30932D01*
X645697Y30838D01*
X645617Y30742D01*
X645540Y30643D01*
X645466Y30542D01*
X645395Y30439D01*
X645328Y30333D01*
X645263Y30226D01*
X645203Y30117D01*
X645145Y30005D01*
X645091Y29893D01*
X645040Y29778D01*
X644993Y29662D01*
X644950Y29545D01*
X644910Y29426D01*
X644874Y29306D01*
X644842Y29185D01*
X644813Y29063D01*
X644788Y28941D01*
X644767Y28817D01*
X644750Y28693D01*
X644736Y28569D01*
X644727Y28444D01*
X644721Y28319D01*
X644719Y28194D01*
X648783Y32258D02*
X648926Y32256D01*
X649068Y32250D01*
X649211Y32240D01*
X649353Y32227D01*
X649494Y32209D01*
X649636Y32188D01*
X649776Y32163D01*
X649916Y32134D01*
X650055Y32101D01*
X650193Y32064D01*
X650330Y32024D01*
X650465Y31980D01*
X650600Y31932D01*
X650733Y31880D01*
X650865Y31825D01*
X650995Y31766D01*
X651123Y31704D01*
X651250Y31638D01*
X651375Y31569D01*
X651498Y31497D01*
X651619Y31421D01*
X651737Y31342D01*
X651854Y31259D01*
X651968Y31174D01*
X652080Y31085D01*
X652189Y30994D01*
X652296Y30899D01*
X652401Y30802D01*
X652502Y30701D01*
X652601Y30598D01*
X652697Y30493D01*
X652790Y30384D01*
X652880Y30273D01*
X652967Y30160D01*
X653051Y30045D01*
X653131Y29927D01*
X653209Y29807D01*
X653283Y29685D01*
X653353Y29561D01*
X653421Y29435D01*
X653484Y29307D01*
X653545Y29178D01*
X653602Y29047D01*
X653655Y28915D01*
X653704Y28781D01*
X653750Y28646D01*
X646074Y25033D02*
X645980Y25125D01*
X645890Y25219D01*
X645802Y25316D01*
X645717Y25416D01*
X645635Y25518D01*
X645556Y25623D01*
X645481Y25730D01*
X645409Y25839D01*
X645340Y25950D01*
X645274Y26064D01*
X645212Y26179D01*
X645153Y26296D01*
X645098Y26415D01*
X645047Y26535D01*
X644999Y26657D01*
X644954Y26780D01*
X644914Y26904D01*
X644877Y27030D01*
X644844Y27157D01*
X644815Y27284D01*
X644789Y27413D01*
X644768Y27542D01*
X644750Y27672D01*
X644737Y27802D01*
X644727Y27932D01*
X644721Y28063D01*
X644719Y28194D01*
X646074Y25033D02*
X653750Y16002D01*
X644719Y16002D01*
X638119Y24130D02*
X638115Y24450D01*
X638104Y24769D01*
X638085Y25089D01*
X638058Y25407D01*
X638024Y25725D01*
X637982Y26042D01*
X637932Y26358D01*
X637875Y26673D01*
X637811Y26986D01*
X637739Y27298D01*
X637660Y27608D01*
X637573Y27915D01*
X637479Y28221D01*
X637378Y28524D01*
X637269Y28825D01*
X637154Y29123D01*
X637031Y29419D01*
X636901Y29711D01*
X636764Y30000D01*
X636764Y30001D02*
X636725Y30109D01*
X636682Y30216D01*
X636636Y30321D01*
X636585Y30425D01*
X636532Y30527D01*
X636475Y30627D01*
X636414Y30725D01*
X636350Y30820D01*
X636283Y30914D01*
X636212Y31005D01*
X636139Y31094D01*
X636062Y31180D01*
X635983Y31263D01*
X635901Y31344D01*
X635816Y31422D01*
X635728Y31496D01*
X635638Y31568D01*
X635546Y31636D01*
X635451Y31702D01*
X635354Y31764D01*
X635255Y31822D01*
X635153Y31878D01*
X635051Y31929D01*
X634946Y31977D01*
X634840Y32022D01*
X634732Y32063D01*
X634623Y32100D01*
X634513Y32133D01*
X634401Y32162D01*
X634289Y32188D01*
X634176Y32210D01*
X634062Y32227D01*
X633948Y32241D01*
X633833Y32251D01*
X633718Y32257D01*
X633603Y32259D01*
X633603Y32258D02*
X633488Y32256D01*
X633373Y32250D01*
X633258Y32240D01*
X633144Y32226D01*
X633030Y32209D01*
X632917Y32187D01*
X632805Y32161D01*
X632693Y32132D01*
X632583Y32099D01*
X632474Y32062D01*
X632366Y32021D01*
X632260Y31976D01*
X632156Y31928D01*
X632053Y31877D01*
X631952Y31821D01*
X631852Y31763D01*
X631755Y31701D01*
X631661Y31636D01*
X631568Y31567D01*
X631478Y31495D01*
X631390Y31421D01*
X631305Y31343D01*
X631223Y31262D01*
X631144Y31179D01*
X631067Y31093D01*
X630994Y31004D01*
X630923Y30913D01*
X630856Y30819D01*
X630792Y30724D01*
X630731Y30626D01*
X630674Y30526D01*
X630621Y30424D01*
X630570Y30320D01*
X630524Y30215D01*
X630481Y30108D01*
X630442Y30000D01*
X630443Y30000D02*
X630306Y29711D01*
X630176Y29419D01*
X630053Y29123D01*
X629938Y28825D01*
X629829Y28524D01*
X629728Y28221D01*
X629634Y27915D01*
X629547Y27608D01*
X629468Y27298D01*
X629396Y26986D01*
X629332Y26673D01*
X629275Y26358D01*
X629225Y26042D01*
X629183Y25725D01*
X629149Y25407D01*
X629122Y25089D01*
X629103Y24769D01*
X629092Y24450D01*
X629088Y24130D01*
X638119Y24130D02*
X638115Y23810D01*
X638104Y23491D01*
X638085Y23171D01*
X638058Y22853D01*
X638024Y22535D01*
X637982Y22218D01*
X637932Y21902D01*
X637875Y21587D01*
X637811Y21274D01*
X637739Y20962D01*
X637660Y20652D01*
X637573Y20345D01*
X637479Y20039D01*
X637378Y19736D01*
X637269Y19435D01*
X637154Y19137D01*
X637031Y18841D01*
X636901Y18549D01*
X636764Y18260D01*
X636725Y18152D01*
X636682Y18045D01*
X636636Y17940D01*
X636585Y17836D01*
X636532Y17734D01*
X636475Y17634D01*
X636414Y17536D01*
X636350Y17441D01*
X636283Y17347D01*
X636212Y17256D01*
X636139Y17167D01*
X636062Y17081D01*
X635983Y16998D01*
X635901Y16917D01*
X635816Y16839D01*
X635728Y16765D01*
X635638Y16693D01*
X635545Y16624D01*
X635451Y16559D01*
X635354Y16497D01*
X635254Y16439D01*
X635153Y16383D01*
X635051Y16332D01*
X634946Y16284D01*
X634840Y16239D01*
X634732Y16198D01*
X634623Y16161D01*
X634513Y16128D01*
X634401Y16099D01*
X634289Y16073D01*
X634176Y16051D01*
X634062Y16034D01*
X633948Y16020D01*
X633833Y16010D01*
X633718Y16004D01*
X633603Y16002D01*
X630443Y18260D02*
X630306Y18549D01*
X630176Y18841D01*
X630053Y19137D01*
X629938Y19435D01*
X629829Y19736D01*
X629728Y20039D01*
X629634Y20345D01*
X629547Y20652D01*
X629468Y20962D01*
X629396Y21274D01*
X629332Y21587D01*
X629275Y21902D01*
X629225Y22218D01*
X629183Y22535D01*
X629149Y22853D01*
X629122Y23171D01*
X629103Y23491D01*
X629092Y23810D01*
X629088Y24130D01*
X630442Y18260D02*
X630481Y18152D01*
X630524Y18045D01*
X630570Y17940D01*
X630621Y17836D01*
X630674Y17734D01*
X630732Y17634D01*
X630792Y17536D01*
X630856Y17441D01*
X630923Y17347D01*
X630994Y17256D01*
X631067Y17167D01*
X631144Y17081D01*
X631223Y16998D01*
X631305Y16917D01*
X631390Y16839D01*
X631478Y16765D01*
X631568Y16693D01*
X631661Y16624D01*
X631755Y16559D01*
X631852Y16497D01*
X631952Y16439D01*
X632053Y16383D01*
X632156Y16332D01*
X632260Y16284D01*
X632366Y16239D01*
X632474Y16198D01*
X632583Y16161D01*
X632693Y16128D01*
X632805Y16099D01*
X632917Y16073D01*
X633030Y16051D01*
X633144Y16034D01*
X633258Y16020D01*
X633373Y16010D01*
X633488Y16004D01*
X633603Y16002D01*
X637216Y19614D02*
X629991Y28646D01*
X622488Y28646D02*
X617972Y32258D01*
X617972Y16002D01*
X613457Y16002D02*
X622488Y16002D01*
X603244Y23227D02*
X597825Y23227D01*
X603244Y23227D02*
X603362Y23229D01*
X603480Y23235D01*
X603598Y23244D01*
X603715Y23258D01*
X603832Y23275D01*
X603949Y23296D01*
X604064Y23321D01*
X604179Y23350D01*
X604293Y23383D01*
X604405Y23419D01*
X604516Y23459D01*
X604626Y23502D01*
X604735Y23549D01*
X604842Y23599D01*
X604947Y23654D01*
X605050Y23711D01*
X605151Y23772D01*
X605251Y23836D01*
X605348Y23903D01*
X605443Y23973D01*
X605535Y24047D01*
X605626Y24123D01*
X605713Y24203D01*
X605798Y24285D01*
X605880Y24370D01*
X605960Y24457D01*
X606036Y24548D01*
X606110Y24640D01*
X606180Y24735D01*
X606247Y24832D01*
X606311Y24932D01*
X606372Y25033D01*
X606429Y25136D01*
X606484Y25241D01*
X606534Y25348D01*
X606581Y25457D01*
X606624Y25567D01*
X606664Y25678D01*
X606700Y25790D01*
X606733Y25904D01*
X606762Y26019D01*
X606787Y26134D01*
X606808Y26251D01*
X606825Y26368D01*
X606839Y26485D01*
X606848Y26603D01*
X606854Y26721D01*
X606856Y26839D01*
X606856Y27742D01*
X606857Y27742D02*
X606855Y27875D01*
X606849Y28007D01*
X606839Y28139D01*
X606826Y28271D01*
X606808Y28403D01*
X606787Y28533D01*
X606762Y28664D01*
X606733Y28793D01*
X606700Y28921D01*
X606664Y29049D01*
X606624Y29175D01*
X606580Y29300D01*
X606532Y29424D01*
X606481Y29546D01*
X606426Y29667D01*
X606368Y29786D01*
X606306Y29904D01*
X606241Y30019D01*
X606172Y30133D01*
X606101Y30244D01*
X606025Y30353D01*
X605947Y30460D01*
X605866Y30565D01*
X605781Y30667D01*
X605694Y30767D01*
X605604Y30864D01*
X605511Y30959D01*
X605415Y31050D01*
X605317Y31139D01*
X605216Y31225D01*
X605112Y31308D01*
X605006Y31388D01*
X604898Y31464D01*
X604788Y31538D01*
X604675Y31608D01*
X604561Y31675D01*
X604444Y31738D01*
X604326Y31798D01*
X604206Y31855D01*
X604084Y31908D01*
X603961Y31957D01*
X603837Y32003D01*
X603711Y32045D01*
X603584Y32083D01*
X603456Y32118D01*
X603327Y32149D01*
X603198Y32176D01*
X603067Y32199D01*
X602936Y32219D01*
X602804Y32234D01*
X602672Y32246D01*
X602540Y32254D01*
X602407Y32258D01*
X602275Y32258D01*
X602142Y32254D01*
X602010Y32246D01*
X601878Y32234D01*
X601746Y32219D01*
X601615Y32199D01*
X601484Y32176D01*
X601355Y32149D01*
X601226Y32118D01*
X601098Y32083D01*
X600971Y32045D01*
X600845Y32003D01*
X600721Y31957D01*
X600598Y31908D01*
X600476Y31855D01*
X600356Y31798D01*
X600238Y31738D01*
X600121Y31675D01*
X600007Y31608D01*
X599894Y31538D01*
X599784Y31464D01*
X599676Y31388D01*
X599570Y31308D01*
X599466Y31225D01*
X599365Y31139D01*
X599267Y31050D01*
X599171Y30959D01*
X599078Y30864D01*
X598988Y30767D01*
X598901Y30667D01*
X598816Y30565D01*
X598735Y30460D01*
X598657Y30353D01*
X598581Y30244D01*
X598510Y30133D01*
X598441Y30019D01*
X598376Y29904D01*
X598314Y29786D01*
X598256Y29667D01*
X598201Y29546D01*
X598150Y29424D01*
X598102Y29300D01*
X598058Y29175D01*
X598018Y29049D01*
X597982Y28921D01*
X597949Y28793D01*
X597920Y28664D01*
X597895Y28533D01*
X597874Y28403D01*
X597856Y28271D01*
X597843Y28139D01*
X597833Y28007D01*
X597827Y27875D01*
X597825Y27742D01*
X597825Y23227D01*
X597827Y23052D01*
X597833Y22878D01*
X597844Y22704D01*
X597859Y22530D01*
X597878Y22356D01*
X597901Y22183D01*
X597928Y22011D01*
X597960Y21839D01*
X597995Y21668D01*
X598035Y21498D01*
X598079Y21329D01*
X598127Y21161D01*
X598179Y20994D01*
X598235Y20829D01*
X598295Y20665D01*
X598358Y20502D01*
X598426Y20342D01*
X598498Y20182D01*
X598573Y20025D01*
X598653Y19869D01*
X598736Y19716D01*
X598822Y19564D01*
X598913Y19415D01*
X599007Y19268D01*
X599104Y19123D01*
X599205Y18980D01*
X599309Y18840D01*
X599417Y18703D01*
X599528Y18568D01*
X599642Y18436D01*
X599759Y18307D01*
X599880Y18180D01*
X600003Y18057D01*
X600130Y17936D01*
X600259Y17819D01*
X600391Y17705D01*
X600526Y17594D01*
X600663Y17486D01*
X600803Y17382D01*
X600946Y17281D01*
X601091Y17184D01*
X601238Y17090D01*
X601387Y16999D01*
X601539Y16913D01*
X601692Y16830D01*
X601848Y16750D01*
X602005Y16675D01*
X602165Y16603D01*
X602325Y16535D01*
X602488Y16472D01*
X602652Y16412D01*
X602817Y16356D01*
X602984Y16304D01*
X603152Y16256D01*
X603321Y16212D01*
X603491Y16172D01*
X603662Y16137D01*
X603834Y16105D01*
X604006Y16078D01*
X604179Y16055D01*
X604353Y16036D01*
X604527Y16021D01*
X604701Y16010D01*
X604875Y16004D01*
X605050Y16002D01*
M02*
