G04 EAGLE Gerber X2 export*
%TF.Part,Single*%
%TF.FileFunction,Soldermask,Top,1*%
%TF.FilePolarity,Negative*%
%TF.GenerationSoftware,Autodesk,EAGLE,9.1.3*%
%TF.CreationDate,2019-10-04T04:58:18Z*%
G75*
%MOMM*%
%FSLAX34Y34*%
%LPD*%
%AMOC8*
5,1,8,0,0,1.08239X$1,22.5*%
G01*
%ADD10C,1.203200*%
%ADD11C,3.603200*%
%ADD12C,2.946400*%
%ADD13C,1.411200*%
%ADD14C,1.727200*%
%ADD15R,0.893200X1.403200*%
%ADD16C,0.463294*%
%ADD17R,1.003200X2.203200*%
%ADD18R,1.103200X1.003200*%
%ADD19R,1.203200X1.003200*%
%ADD20C,1.003200*%
%ADD21R,1.703200X1.503200*%
%ADD22R,1.503200X1.753200*%
%ADD23R,1.611200X1.611200*%
%ADD24R,1.473200X1.473200*%


D10*
X20000Y210000D03*
X20000Y20000D03*
D11*
X1422700Y20000D03*
X1422700Y210000D03*
D12*
X294600Y89500D03*
X227120Y114900D03*
X294600Y140300D03*
X772200Y140500D03*
X839680Y115100D03*
X772200Y89700D03*
D13*
X1251500Y46000D02*
X1251500Y33920D01*
X1271500Y33920D02*
X1271500Y46000D01*
X1291500Y46000D02*
X1291500Y33920D01*
X1311500Y33920D02*
X1311500Y46000D01*
X1331500Y46000D02*
X1331500Y33920D01*
X1351500Y33920D02*
X1351500Y46000D01*
X1371500Y46000D02*
X1371500Y33920D01*
X1391500Y33920D02*
X1391500Y46000D01*
X1251500Y186000D02*
X1251500Y198080D01*
X1271500Y198080D02*
X1271500Y186000D01*
X1291500Y186000D02*
X1291500Y198080D01*
X1311500Y198080D02*
X1311500Y186000D01*
X1331500Y186000D02*
X1331500Y198080D01*
X1351500Y198080D02*
X1351500Y186000D01*
X1371500Y186000D02*
X1371500Y198080D01*
X1391500Y198080D02*
X1391500Y186000D01*
D14*
X1016000Y45720D02*
X1016000Y30480D01*
X990600Y30480D02*
X990600Y45720D01*
X965200Y45720D02*
X965200Y30480D01*
X939800Y30480D02*
X939800Y45720D01*
X914400Y45720D02*
X914400Y30480D01*
X889000Y30480D02*
X889000Y45720D01*
D15*
X117500Y164799D03*
X127000Y164799D03*
X136500Y164799D03*
X136500Y190801D03*
X117500Y190801D03*
D16*
X94585Y172690D02*
X94585Y165130D01*
X83215Y165130D01*
X83215Y172690D01*
X94585Y172690D01*
X94585Y169531D02*
X83215Y169531D01*
X94585Y182910D02*
X94585Y190470D01*
X94585Y182910D02*
X83215Y182910D01*
X83215Y190470D01*
X94585Y190470D01*
X94585Y187311D02*
X83215Y187311D01*
X170785Y172690D02*
X170785Y165130D01*
X159415Y165130D01*
X159415Y172690D01*
X170785Y172690D01*
X170785Y169531D02*
X159415Y169531D01*
X170785Y182910D02*
X170785Y190470D01*
X170785Y182910D02*
X159415Y182910D01*
X159415Y190470D01*
X170785Y190470D01*
X170785Y187311D02*
X159415Y187311D01*
X158085Y96490D02*
X158085Y88930D01*
X146715Y88930D01*
X146715Y96490D01*
X158085Y96490D01*
X158085Y93331D02*
X146715Y93331D01*
X158085Y106710D02*
X158085Y114270D01*
X158085Y106710D02*
X146715Y106710D01*
X146715Y114270D01*
X158085Y114270D01*
X158085Y111111D02*
X146715Y111111D01*
X907385Y109190D02*
X907385Y101630D01*
X896015Y101630D01*
X896015Y109190D01*
X907385Y109190D01*
X907385Y106031D02*
X896015Y106031D01*
X907385Y119410D02*
X907385Y126970D01*
X907385Y119410D02*
X896015Y119410D01*
X896015Y126970D01*
X907385Y126970D01*
X907385Y123811D02*
X896015Y123811D01*
X69185Y165130D02*
X69185Y172690D01*
X69185Y165130D02*
X57815Y165130D01*
X57815Y172690D01*
X69185Y172690D01*
X69185Y169531D02*
X57815Y169531D01*
X69185Y182910D02*
X69185Y190470D01*
X69185Y182910D02*
X57815Y182910D01*
X57815Y190470D01*
X69185Y190470D01*
X69185Y187311D02*
X57815Y187311D01*
X1200815Y114270D02*
X1200815Y106710D01*
X1200815Y114270D02*
X1212185Y114270D01*
X1212185Y106710D01*
X1200815Y106710D01*
X1200815Y111111D02*
X1212185Y111111D01*
X1200815Y96490D02*
X1200815Y88930D01*
X1200815Y96490D02*
X1212185Y96490D01*
X1212185Y88930D01*
X1200815Y88930D01*
X1200815Y93331D02*
X1212185Y93331D01*
D17*
X131420Y46400D03*
D18*
X85190Y36650D03*
D19*
X85690Y14150D03*
D18*
X161190Y36650D03*
D19*
X160690Y14150D03*
D17*
X101420Y46400D03*
X146420Y46400D03*
D20*
X108190Y25400D03*
X138190Y25400D03*
D21*
X1066800Y156600D03*
X1066800Y173600D03*
X1193800Y156600D03*
X1193800Y173600D03*
X1168400Y93100D03*
X1168400Y110100D03*
X1206500Y42300D03*
X1206500Y59300D03*
X1168400Y42300D03*
X1168400Y59300D03*
D16*
X1023015Y170210D02*
X1023015Y177770D01*
X1034385Y177770D01*
X1034385Y170210D01*
X1023015Y170210D01*
X1023015Y174611D02*
X1034385Y174611D01*
X1023015Y159990D02*
X1023015Y152430D01*
X1023015Y159990D02*
X1034385Y159990D01*
X1034385Y152430D01*
X1023015Y152430D01*
X1023015Y156831D02*
X1034385Y156831D01*
D22*
X930000Y211750D03*
X930000Y132250D03*
X975000Y211750D03*
X975000Y132250D03*
D21*
X952500Y97400D03*
X952500Y80400D03*
X990600Y97400D03*
X990600Y80400D03*
D23*
X-203200Y184150D03*
X-203200Y50800D03*
X19050Y50800D03*
X19050Y184150D03*
X19050Y158750D03*
X19050Y76200D03*
D17*
X1100430Y46400D03*
D18*
X1054200Y36650D03*
D19*
X1054700Y14150D03*
D18*
X1130200Y36650D03*
D19*
X1129700Y14150D03*
D17*
X1070430Y46400D03*
X1115430Y46400D03*
D20*
X1077200Y25400D03*
X1107200Y25400D03*
D24*
X114300Y88900D03*
X114300Y114300D03*
X114300Y139700D03*
M02*
