G04 EAGLE Gerber RS-274X export*
G75*
%MOMM*%
%FSLAX34Y34*%
%LPD*%
%AMOC8*
5,1,8,0,0,1.08239X$1,22.5*%
G01*
%ADD10C,0.756400*%


D10*
X1066800Y190500D03*
X1092200Y190500D03*
X914400Y76200D03*
X1003300Y139700D03*
X1145540Y119380D03*
X1189990Y119380D03*
X1136650Y171450D03*
X63500Y139700D03*
X165100Y76200D03*
X194310Y171450D03*
X381000Y152400D03*
X533400Y88900D03*
X685800Y152400D03*
X1188720Y19050D03*
X1231900Y22860D03*
X1306830Y16510D03*
X1295400Y88900D03*
X1384300Y127000D03*
X165100Y50800D03*
X43180Y171450D03*
X342900Y127000D03*
X342900Y88900D03*
X419100Y88900D03*
X469900Y139700D03*
X469900Y88900D03*
X533400Y139700D03*
X622300Y139700D03*
X622300Y88900D03*
X622300Y38100D03*
X533400Y38100D03*
X469900Y38100D03*
X419100Y38100D03*
X419100Y139700D03*
X342900Y38100D03*
X292100Y38100D03*
X241300Y38100D03*
X254000Y76200D03*
X177800Y114300D03*
X241300Y139700D03*
X25400Y114300D03*
X63500Y25400D03*
X101600Y203200D03*
X190500Y203200D03*
X241300Y203200D03*
X342900Y203200D03*
X381000Y203200D03*
X419100Y203200D03*
X469900Y203200D03*
X533400Y203200D03*
X622300Y203200D03*
X685800Y203200D03*
X787400Y203200D03*
X848360Y175260D03*
X800100Y152400D03*
X850900Y152400D03*
X736600Y152400D03*
X732790Y175260D03*
X891540Y173990D03*
X889000Y152400D03*
X955040Y212090D03*
X1012190Y179070D03*
X999490Y204470D03*
X1047750Y146050D03*
X1009650Y95250D03*
X1047750Y107950D03*
X1085850Y69850D03*
X1035050Y57150D03*
X1111250Y95250D03*
X1263650Y82550D03*
X1250950Y107950D03*
X1276350Y107950D03*
X1333500Y63500D03*
X1295400Y63500D03*
X1268730Y63500D03*
X1346200Y114300D03*
X1384300Y76200D03*
X1384300Y152400D03*
X1329690Y160020D03*
X1397000Y165100D03*
X1384300Y101600D03*
X1168400Y25400D03*
X723900Y38100D03*
X711200Y88900D03*
X822960Y67310D03*
X800100Y114300D03*
X1358900Y215900D03*
X1219200Y213360D03*
X1181100Y203200D03*
X1104900Y215900D03*
X1041400Y215900D03*
X1217930Y172720D03*
X1281430Y173990D03*
X1240790Y59690D03*
X97790Y144780D03*
X1188720Y78740D03*
X1224280Y34290D03*
X1200150Y29210D03*
X1014730Y121920D03*
X1014730Y134620D03*
M02*
